HIERARCHY
ROOT Hips
{
	OFFSET 0.000000 0.000000 0.000000
	CHANNELS 6 Xposition Yposition Zposition Xrotation Yrotation Zrotation
	JOINT LeftUpLeg_virtual
	{
		OFFSET 0.000000 0.000000 0.000000
		CHANNELS 3 Xrotation Yrotation Zrotation
		JOINT LeftUpLeg
		{
			OFFSET 11.394100 -6.187798 -0.413800
			CHANNELS 3 Xrotation Yrotation Zrotation
			JOINT LeftLeg
			{
				OFFSET 0.430247 -32.302673 3.732800
				CHANNELS 3 Xrotation Yrotation Zrotation
				JOINT LeftFoot
				{
					OFFSET -0.430247 -48.264931 -6.423300
					CHANNELS 3 Xrotation Yrotation Zrotation
					JOINT LeftToeBase
					{
						OFFSET 4.230900 -16.068199 23.438400
						CHANNELS 3 Xrotation Yrotation Zrotation
						JOINT LeftToe_End
						{
							OFFSET 4.510700 0.695400 19.974600
							CHANNELS 3 Xrotation Yrotation Zrotation
							End Site
							{
								OFFSET 0 0 0
							}
						}
					}
				}
			}
		}
	}
	JOINT RightUpLeg_virtual
	{
		OFFSET 0.000000 0.000000 0.000000
		CHANNELS 3 Xrotation Yrotation Zrotation
		JOINT RightUpLeg
		{
			OFFSET -11.333700 -6.187798 -0.413800
			CHANNELS 3 Xrotation Yrotation Zrotation
			JOINT RightLeg
			{
				OFFSET -0.430392 -32.302628 3.733000
				CHANNELS 3 Xrotation Yrotation Zrotation
				JOINT RightFoot
				{
					OFFSET 0.430392 -48.264973 -6.423500
					CHANNELS 3 Xrotation Yrotation Zrotation
					JOINT RightToeBase
					{
						OFFSET -4.230900 -16.068199 23.438400
						CHANNELS 3 Xrotation Yrotation Zrotation
						JOINT RightToe_End
						{
							OFFSET -4.510700 0.695400 19.974600
							CHANNELS 3 Xrotation Yrotation Zrotation
							End Site
							{
								OFFSET 0 0 0
							}
						}
					}
				}
			}
		}
	}
	JOINT Spine_virtual
	{
		OFFSET 0.000000 0.000000 0.000000
		CHANNELS 3 Xrotation Yrotation Zrotation
		JOINT Spine
		{
			OFFSET -0.002400 12.777504 0.315300
			CHANNELS 3 Xrotation Yrotation Zrotation
			JOINT Spine1
			{
				OFFSET -0.002067 5.816869 0.032633
				CHANNELS 3 Xrotation Yrotation Zrotation
				JOINT Spine1_split
				{
					OFFSET -0.002067 5.816869 0.032633
					CHANNELS 3 Xrotation Yrotation Zrotation
					JOINT Spine2
					{
						OFFSET -0.002067 5.816869 0.032633
						CHANNELS 3 Xrotation Yrotation Zrotation
						JOINT Neck_virtual
						{
							OFFSET 0.000000 0.000000 0.000000
							CHANNELS 3 Xrotation Yrotation Zrotation
							JOINT Neck
							{
								OFFSET -0.003700 21.199493 -0.826900
								CHANNELS 3 Xrotation Yrotation Zrotation
								JOINT Head
								{
									OFFSET 0.000000 20.442200 4.834800
									CHANNELS 3 Xrotation Yrotation Zrotation
									JOINT HeadTop_End
									{
										OFFSET 0.000000 34.668396 4.968400
										CHANNELS 3 Xrotation Yrotation Zrotation
										End Site
										{
											OFFSET 0 0 0
										}
									}
								}
							}
						}
						JOINT LeftShoulder_virtual
						{
							OFFSET 0.000000 0.000000 0.000000
							CHANNELS 3 Xrotation Yrotation Zrotation
							JOINT LeftShoulder
							{
								OFFSET 3.288150 8.794197 -1.372250
								CHANNELS 3 Xrotation Yrotation Zrotation
								JOINT LeftShoulder_split
								{
									OFFSET 3.288150 8.794197 -1.372250
									CHANNELS 3 Xrotation Yrotation Zrotation
									JOINT LeftArm
									{
										OFFSET 11.953299 -2.279007 -0.146200
										CHANNELS 3 Xrotation Yrotation Zrotation
										JOINT LeftForeArm
										{
											OFFSET 18.448900 0.000000 0.000000
											CHANNELS 3 Xrotation Yrotation Zrotation
											JOINT LeftHand
											{
												OFFSET 29.527798 0.000000 0.000000
												CHANNELS 3 Xrotation Yrotation Zrotation
												End Site
												{
													OFFSET 0 0 0
												}
											}
										}
									}
								}
							}
						}
						JOINT RightShoulder_virtual
						{
							OFFSET 0.000000 0.000000 0.000000
							CHANNELS 3 Xrotation Yrotation Zrotation
							JOINT RightShoulder
							{
								OFFSET -3.249400 8.794197 -1.372250
								CHANNELS 3 Xrotation Yrotation Zrotation
								JOINT RightShoulder_split
								{
									OFFSET -3.249400 8.794197 -1.372250
									CHANNELS 3 Xrotation Yrotation Zrotation
									JOINT RightArm
									{
										OFFSET -11.953299 -2.279007 -0.146200
										CHANNELS 3 Xrotation Yrotation Zrotation
										JOINT RightForeArm
										{
											OFFSET -18.448900 0.000000 0.000000
											CHANNELS 3 Xrotation Yrotation Zrotation
											JOINT RightHand
											{
												OFFSET -29.527802 0.000000 0.000000
												CHANNELS 3 Xrotation Yrotation Zrotation
												End Site
												{
													OFFSET 0 0 0
												}
											}
										}
									}
								}
							}
						}
					}
				}
			}
		}
	}
}
MOTION
Frames: 10
Frame Time: 0.03333333
5.379503 78.245270 137.140564 0.000000 0.000000 0.000000 5.721592 -24.516192 1.148745 18.697766 28.831939 10.088847 38.292667 13.836654 -4.237527 -26.769980 1.754873 -28.884187 -36.799499 -1.845280 -12.753733 0.000000 0.000000 0.000000 7.205458 -19.806599 0.966579 -75.792724 -4.126956 -8.900157 55.233390 0.791725 -5.277442 13.853407 6.149439 5.929691 -6.566768 6.382142 3.353918 0.000000 0.000000 0.000000 6.110971 -22.480015 3.055625 2.149468 -4.413578 -1.135702 2.957624 -6.742813 0.837788 2.321881 -4.472922 0.554062 0.000000 0.000000 0.000000 3.861050 -6.290010 0.703723 12.791099 1.966593 11.470264 -1.423512 4.594007 -15.488198 0.000000 0.000000 0.000000 4.528470 -7.313738 0.233973 -2.674595 -15.386379 -16.553542 -6.141347 8.344103 -0.536596 -45.034603 -10.694248 -25.246005 -20.435945 -71.500415 9.074249 0.000000 0.000000 0.000000 3.731339 -6.275062 1.547360 -0.336033 -0.828587 -0.893437 -5.227579 -1.573529 -3.621147 -29.469384 42.366485 7.923072 48.141161 31.010514 -20.668043 0.000000 0.000000 0.000000 
4.489189 77.973244 142.199326 0.000000 0.000000 0.000000 8.949426 -28.399387 1.941808 25.013570 28.949805 6.862866 29.841008 15.767509 -2.395903 -21.461137 -3.346033 -29.229385 -49.788503 -0.780329 -11.078913 0.000000 0.000000 0.000000 10.743199 -24.580712 1.774324 -76.666688 -4.251869 -4.598905 55.823597 0.104832 -4.973962 10.913179 6.306276 4.010975 -5.861857 4.668089 4.000682 0.000000 0.000000 0.000000 9.337891 -27.248946 2.835880 2.228635 -7.014482 -0.962598 3.184459 -10.246252 1.913174 1.919579 -2.945187 0.525810 0.000000 0.000000 0.000000 3.998911 -9.631680 2.076290 9.824151 5.141773 13.149295 1.102556 11.122866 -19.634779 0.000000 0.000000 0.000000 4.610601 -10.729665 1.703834 -4.457561 -20.365949 -17.223374 -6.708174 9.124806 -0.286965 -42.564680 -18.938235 -29.967578 -15.166889 -55.609628 10.277194 0.000000 0.000000 0.000000 3.731119 -9.707359 2.888929 -0.049325 -3.287787 5.852904 -4.285378 -1.553777 -3.761962 -19.920766 31.987897 0.184770 38.416553 24.282747 -9.276392 0.000000 0.000000 0.000000 
3.496142 78.018082 147.248199 0.000000 0.000000 0.000000 12.138443 -31.423457 2.528868 27.197624 29.292407 6.617924 24.873003 16.155397 -0.835558 -11.308658 -9.307125 -29.030766 -55.827272 -0.753327 -8.153253 0.000000 0.000000 0.000000 14.091831 -27.801687 2.332928 -76.733774 -3.955848 -0.796900 56.906793 -0.672972 -4.770495 6.938084 6.551619 1.286346 -3.034586 3.767799 4.911983 0.000000 0.000000 0.000000 12.212612 -30.674694 2.472377 2.246584 -8.913319 -0.713578 3.636032 -12.751822 2.886149 0.991850 -1.803561 0.514768 0.000000 0.000000 0.000000 4.579465 -11.992246 3.363930 6.245021 7.802216 14.778854 3.518624 16.192939 -22.599093 0.000000 0.000000 0.000000 4.875457 -13.059173 3.038515 -5.507178 -23.969521 -16.232223 -6.823610 8.668041 -0.228548 -41.046104 -27.412440 -35.426542 -12.495272 -40.598610 8.564848 0.000000 0.000000 0.000000 3.851729 -12.207427 3.958710 0.417803 -5.281345 10.217918 -3.115919 -1.019919 -2.927632 -16.883207 23.307370 -1.449866 31.525076 23.663754 -3.480452 0.000000 0.000000 0.000000 
2.606911 78.385597 152.154541 0.000000 0.000000 0.000000 14.630173 -34.443025 2.774011 25.255010 30.366775 9.176758 25.410302 16.783148 -0.490456 1.883836 -14.088008 -25.211162 -49.703976 -1.200528 -5.225973 0.000000 0.000000 0.000000 16.699121 -30.508392 2.579464 -76.105595 -3.287730 2.120930 58.262094 -1.153795 -4.681299 3.725542 7.323649 -0.898653 -0.327833 3.687593 5.312405 0.000000 0.000000 0.000000 14.061824 -33.757459 1.833378 2.241331 -9.989214 -0.345157 4.148782 -14.168724 3.564850 0.197994 -1.296190 0.462460 0.000000 0.000000 0.000000 5.336339 -13.307379 4.267746 2.486709 9.940755 16.384548 5.413525 19.975441 -24.327752 0.000000 0.000000 0.000000 5.114539 -14.289195 3.972820 -5.788016 -26.207697 -13.972550 -6.241417 7.388731 -0.531025 -41.948239 -34.670843 -41.982779 -10.786007 -29.330857 5.887670 0.000000 0.000000 0.000000 3.963784 -13.664667 4.591577 0.836391 -6.312111 12.302789 -1.671851 -0.162116 -1.582868 -17.213076 16.853994 -0.303308 25.060813 27.186258 -0.538121 0.000000 0.000000 0.000000 
1.950794 78.948799 156.631393 0.000000 0.000000 0.000000 16.059935 -38.299111 2.839668 18.314008 31.622550 14.655873 32.273590 18.371798 -1.587652 15.204758 -15.350674 -17.943120 -31.931599 -0.873286 -3.271738 0.000000 0.000000 0.000000 18.100877 -33.440039 2.602121 -74.676821 -2.290390 3.997836 59.005028 -0.786608 -4.837036 2.262330 8.799157 -1.238825 0.312584 4.068696 4.810398 0.000000 0.000000 0.000000 14.602873 -37.242897 0.910519 2.301511 -10.265181 0.098513 4.538917 -14.607678 3.826340 -0.048245 -1.244410 0.973549 0.000000 0.000000 0.000000 5.969085 -13.726040 4.644105 -0.988511 11.665849 17.920980 6.627394 22.765087 -24.848785 0.000000 0.000000 0.000000 5.119696 -14.597682 4.292426 -5.487313 -27.173761 -11.211167 -5.034993 5.839568 -1.264858 -45.395104 -39.355690 -49.004681 -9.598420 -22.033036 3.023412 0.000000 0.000000 0.000000 3.976075 -14.135696 4.747377 1.092026 -6.018864 12.499776 -0.380752 0.012794 0.552286 -18.899861 12.432409 1.971700 18.105409 30.683361 1.284699 0.000000 0.000000 0.000000 
1.543151 79.637520 160.665848 0.000000 0.000000 0.000000 16.321372 -42.670487 2.702524 7.744378 30.779599 22.175821 43.540082 19.822444 -3.345584 24.899651 -13.208439 -9.649910 -11.520168 -0.118255 -1.772732 0.000000 0.000000 0.000000 18.171464 -37.080052 2.425032 -71.849390 -0.912783 5.088469 58.438607 0.324914 -5.330629 1.149654 10.758490 0.271474 -0.606552 4.633073 3.627134 0.000000 0.000000 0.000000 13.990361 -41.061670 -0.158747 2.487650 -9.931681 0.594271 4.678515 -14.285746 3.688148 0.248480 -1.662827 1.364777 0.000000 0.000000 0.000000 6.200327 -13.466880 4.451448 -3.876250 12.953433 19.118208 7.000747 24.668480 -24.249741 0.000000 0.000000 0.000000 4.898884 -14.214636 4.024528 -4.817498 -27.124124 -8.605355 -3.789649 3.940972 -1.858133 -50.077123 -41.131748 -55.054415 -8.833145 -17.766026 0.438743 0.000000 0.000000 0.000000 3.802348 -13.841996 4.490097 1.220720 -4.683614 11.544662 0.838322 -0.683192 2.427303 -20.875541 9.703368 4.391058 10.648232 30.185666 2.622444 0.000000 0.000000 0.000000 
1.216089 80.334038 164.598129 0.000000 0.000000 0.000000 15.532907 -47.107859 2.525679 -3.012535 27.358905 28.942920 56.201686 20.272502 -4.755468 28.364124 -9.818109 -2.012722 1.707219 0.782687 -0.289573 0.000000 0.000000 0.000000 17.097825 -41.134517 2.215472 -67.026217 0.653344 5.560727 56.134927 1.239937 -5.841934 -1.540322 12.244958 1.942461 -1.358911 5.052211 2.394615 0.000000 0.000000 0.000000 12.283436 -45.160917 -1.155647 2.827150 -9.250426 1.069672 4.543681 -13.533810 3.223150 0.932079 -1.619596 1.837492 0.000000 0.000000 0.000000 5.918391 -12.803051 3.792256 -5.802952 13.934452 19.678241 6.730000 25.721692 -22.784230 0.000000 0.000000 0.000000 4.547252 -13.473525 3.339357 -3.932478 -26.331622 -6.303454 -2.659023 2.135364 -2.498916 -54.535027 -41.435039 -58.690880 -8.204636 -15.565625 -1.571158 0.000000 0.000000 0.000000 3.443358 -13.076433 3.944107 1.304407 -2.993684 10.006963 2.214689 -1.663542 3.316052 -23.422114 8.086716 6.156068 3.495857 25.449877 3.100124 0.000000 0.000000 0.000000 
0.822772 80.819618 168.595901 0.000000 0.000000 0.000000 13.820837 -51.096997 2.292988 -12.875888 22.246145 33.663629 67.952466 19.624165 -5.244337 25.983911 -7.554771 4.404050 5.198725 1.535133 0.854362 0.000000 0.000000 0.000000 14.962687 -45.146143 1.913595 -60.379412 2.570828 5.513097 52.616489 1.669659 -6.228667 -6.684917 12.740407 3.051759 -0.946704 4.973289 1.547087 0.000000 0.000000 0.000000 9.847976 -48.854909 -1.859027 3.266063 -8.442001 1.385735 4.237457 -12.581070 2.600943 1.177486 -1.186775 2.079789 0.000000 0.000000 0.000000 5.228678 -11.931886 2.906057 -6.480294 14.492388 19.434135 6.136899 25.921347 -20.679520 0.000000 0.000000 0.000000 4.164590 -12.522023 2.487378 -2.913318 -24.870020 -4.311933 -1.963797 0.063870 -2.606510 -58.453620 -41.830250 -59.526840 -7.601283 -15.182686 -2.932476 0.000000 0.000000 0.000000 2.978827 -12.103481 3.263971 1.362606 -1.905106 7.937682 3.554437 -2.796014 3.380669 -27.670000 7.918907 7.555361 -2.794001 20.371268 2.616781 0.000000 0.000000 0.000000 
0.251341 81.041962 172.422180 0.000000 0.000000 0.000000 11.481843 -53.789181 2.032285 -20.614862 17.281453 35.675348 76.246447 18.624343 -4.578053 19.626653 -6.826550 9.459363 3.045131 2.071819 1.125125 0.000000 0.000000 0.000000 12.047029 -48.203650 1.486722 -52.822573 4.859741 4.640183 48.927876 1.751360 -6.524404 -13.219210 12.328047 4.037299 -0.484239 4.106130 1.240477 0.000000 0.000000 0.000000 7.192786 -51.828865 -2.031941 3.617165 -7.722821 1.490227 3.826554 -11.630026 1.957107 1.132839 -0.505755 1.621606 0.000000 0.000000 0.000000 4.376885 -10.983517 1.976473 -5.670955 14.518730 18.189356 5.663735 25.206236 -18.251049 0.000000 0.000000 0.000000 3.865662 -11.476156 1.716775 -1.775310 -22.626817 -2.249955 -1.379480 -2.002414 -2.301586 -62.252017 -43.481155 -58.006959 -7.167261 -16.998015 -3.853010 0.000000 0.000000 0.000000 2.535376 -11.145719 2.558413 1.371688 -2.355486 5.260614 4.280492 -3.602621 2.760405 -35.076177 9.270264 9.134031 -8.293629 19.970032 2.478431 0.000000 0.000000 0.000000 
-0.578040 81.005089 176.467987 0.000000 0.000000 0.000000 8.872859 -55.052117 1.894583 -27.701084 13.512279 36.592557 80.239949 17.157777 -3.247542 12.747664 -7.224063 11.379483 2.498448 2.813624 -0.988957 0.000000 0.000000 0.000000 8.745203 -49.975763 1.135577 -45.435801 7.197892 2.622078 46.288902 1.910998 -6.722073 -18.628994 11.311839 5.692172 -1.582278 2.214291 1.529174 0.000000 0.000000 0.000000 4.581246 -53.775169 -1.689914 3.749589 -7.111067 1.290520 3.502232 -10.760281 1.406373 0.953575 0.598266 1.228248 0.000000 0.000000 0.000000 3.609445 -9.999490 1.191275 -3.294473 14.014968 15.977249 5.756982 23.643115 -15.729309 0.000000 0.000000 0.000000 3.694433 -10.383812 1.171568 -0.599380 -19.386910 0.168420 -0.807021 -3.644401 -1.634208 -66.237904 -46.722906 -54.585178 -6.955015 -22.061685 -4.709367 0.000000 0.000000 0.000000 2.254787 -10.227133 1.894119 1.189781 -4.410982 1.669851 4.410223 -4.121643 2.111878 -46.725973 11.862548 11.813289 -13.599314 27.244667 4.428940 0.000000 0.000000 0.000000 
